<?xml version="1.0" encoding="utf-8"?>
<!-- Generator: Adobe Illustrator 24.1.2, SVG Export Plug-In . SVG Version: 6.00 Build 0)  -->
<svg version="1.1" id="Layer_1" xmlns="http://www.w3.org/2000/svg" xmlns:xlink="http://www.w3.org/1999/xlink" x="0px" y="0px"
	 viewBox="0 0 1080 1080" style="enable-background:new 0 0 1080 1080;" xml:space="preserve">
<style type="text/css">
	.st0{fill:url(#SVGID_1_);}
	.st1{fill:url(#SVGID_2_);}
	.st2{fill:url(#SVGID_3_);}
	.st3{fill:url(#SVGID_4_);}
	.st4{fill:#FFFFFF;}
</style>
<g>
	<linearGradient id="SVGID_1_" gradientUnits="userSpaceOnUse" x1="462.8275" y1="782.2411" x2="463.2498" y2="782.2411">
		<stop  offset="0" style="stop-color:#9F81FD"/>
		<stop  offset="1" style="stop-color:#6946EB"/>
	</linearGradient>
	<path class="st0" d="M462.8,795.5h0.4V769L462.8,795.5z"/>
	<linearGradient id="SVGID_2_" gradientUnits="userSpaceOnUse" x1="206.5287" y1="718.9713" x2="874.9376" y2="718.9713">
		<stop  offset="0" style="stop-color:#9F81FD"/>
		<stop  offset="1" style="stop-color:#6946EB"/>
	</linearGradient>
	<path class="st1" d="M784.4,742.5c-30.1,0-60.1,0-90.1,0.1c-33.3,0.1-66.5,0.1-99.7,0.2c-26.1,0-52.2,0-78.2,0.1
		c0.4-22.9,0.7-46.5-7.3-70.4C493.9,624,454.4,585,405.9,570.7c-14.3-4.3-29.3-6.5-44.6-6.5c-20.6,0-41.3,4.2-59.9,12
		c-32.8,13.6-60.1,38.6-76.9,70.4c-16.7,31.4-22,68.2-14.8,103.5c6.4,30.8,22.2,59.3,44.4,80.2c27.7,27.3,66.2,43.1,105.5,43.4
		c2.7,0,5.3,0,8,0c4.6,0,9.2,0,13.8,0c4.6,0,9.1-0.1,13.7-0.1c6.1,0,11.2,0.1,16,0.1h0.5c57-0.3,115.1-0.3,171.2-0.3
		c37.1,0,74.1,0,111.2-0.1h0.2c1.7,0,3.4,0,5.1,0c2.1,0,4.2,0,6.4,0c2.2,0,4.4,0,6.6,0c11.7,0,24.3-0.4,36.9-2.9
		c52.4-9.8,98-49.2,116.1-100.4l9.9-27.7C874.9,742.4,804.7,742.5,784.4,742.5z M411.5,821.2c-4.9-0.1-10.2-0.1-16.5-0.1
		c-4.2,0-8.5,0-12.7,0h-1.7c-4.4,0-8.7,0-13,0c-2.5,0-5.1,0-7.6,0c-25.7-0.2-50.9-10.6-69-28.3l-0.4-0.4l-0.4-0.4
		c-14.4-13.7-24.7-32.4-29-52.6c-4.7-23.3-1.2-47.5,9.7-68.2c11.2-21.1,29.2-37.6,50.6-46.5l0.4-0.2c12.1-5.2,25.7-7.9,39.3-7.9
		c10.1,0,20,1.5,29.3,4.3l0.4,0.1c31.9,9.4,57.9,35,67.8,66.9l0.2,0.5l0.1,0.5c5.2,15.5,4.9,33.7,4.6,53l-0.4,27v52
		C446,821.1,428.7,821.1,411.5,821.2z"/>
	<linearGradient id="SVGID_3_" gradientUnits="userSpaceOnUse" x1="204.9149" y1="540.0757" x2="875.0851" y2="540.0757">
		<stop  offset="0" style="stop-color:#9F81FD"/>
		<stop  offset="1" style="stop-color:#6946EB"/>
	</linearGradient>
	<path class="st2" d="M253.5,472.6c25.3,25,60.6,40.7,96.7,43.3l0.7,0.1h0.7c25.2,0,45,2.3,62.3,7.2l0.3,0.1
		c40.8,10.9,78,35.1,104.8,68.3c19.6,24.1,33.4,52.5,40,82.2l0.4,1.7l0.1,0.2c1.5,7.4,5.3,12.9,11.3,16.4l4.9,2.9l5.7,0
		c50.5-0.2,101.9-0.3,151.5-0.3c37.5,0,74.9-0.1,112.4-0.2l29.7-0.1l-10.3-27.9c-11.1-30.1-31.2-56.5-56.6-74.3
		c-23.1-16.5-50.7-26.3-79.8-28.2l-0.5,0c-4.2-0.2-8.3-0.2-12.2-0.2c-1.5,0-3,0-4.6-0.1c-42.3-1.3-83.9-16.5-117.1-42.6
		c-38-29.5-65-72.9-74.1-119.1l-3.3-16.8l-17.1,0c-25.5,0.1-51,0.1-76.5,0.1c-10.3,0-20.5,0-30.8,0c-6.8,0-13.5,0-20.3,0
		c-17.7,0-35.4,0-53,0.1c-17.7,0-35.3,0.1-53,0.1c-10.4,0-20.7,0-31.1,0l-29.7-0.1l10.2,27.9C223.3,435.9,236.6,456.4,253.5,472.6z"
		/>
	<linearGradient id="SVGID_4_" gradientUnits="userSpaceOnUse" x1="205.0798" y1="361.0522" x2="873.3892" y2="361.0522">
		<stop  offset="0" style="stop-color:#9F81FD"/>
		<stop  offset="1" style="stop-color:#6946EB"/>
	</linearGradient>
	<path class="st3" d="M869.3,325.8c-8.4-36.4-30.8-69.7-61.6-91.3c-24.8-17.8-55.8-27.9-87.2-28.4l-7.6,0c-31.1,0-62.2,0-93.3,0.1
		c-31.1,0-62.2,0.1-93.3,0.1h-7.3c-28.2,0-56.3,0.1-84.4,0.1c-24.6,0-49.2,0-73.7,0.1H360c-15.3,0-31.4,2.6-48,7.8l-0.4,0.1
		c-44.6,14.8-80.8,50.4-96.8,95.3l-9.9,27.7l48.8,0c18.7,0,37.3,0,56-0.1c18.7,0,37.3,0,56,0c13.2,0,26.4,0,39.6,0h0.2
		c22.1-0.2,44.1-0.2,62.6-0.2h43.4c15.8,0,33.7,0,52.1-0.1v7.6c0,6.6,0,13.2,0,19.8v0.3c0.8,38.3,16.5,76,43.3,103.6
		c28.4,30.2,69.2,47.6,111.7,47.6c9.8,0,19.6-1,29.1-2.8c44.4-8.2,84.1-37.1,106.2-77.2C872.5,403,878.1,362.9,869.3,325.8z
		 M808.2,410.2l-0.2,0.4c-14.5,26.4-40.6,45.4-69.7,50.8l-0.7,0.1c-6.1,1.2-12.4,1.8-18.8,1.8c-28.1,0-54.9-11.3-73.4-31l-0.6-0.6
		c-17.5-18.1-27.9-42.8-28.4-67.9c-0.1-6.2-0.1-12.6,0-18.7v-86.2h5.3c29.9,0,60.8-0.1,91.2-0.1h7.2c20.7,0.4,40.9,7,57.1,18.5
		l0.4,0.3c20,14,35.2,36.5,40.6,60l0.1,0.3C823.9,362.3,820.3,388.6,808.2,410.2z"/>
</g>
</svg>
